<?xml version="1.0" encoding="utf-8"?>
<!-- Generator: Adobe Illustrator 27.8.1, SVG Export Plug-In . SVG Version: 6.00 Build 0)  -->
<svg version="1.1" id="Layer_1" xmlns="http://www.w3.org/2000/svg" xmlns:xlink="http://www.w3.org/1999/xlink" x="0px" y="0px"
	 viewBox="0 0 24 24" style="enable-background:new 0 0 24 24;" xml:space="preserve">
<style type="text/css">
	.st0{fill:#8F0100;}
	.st1{fill:none;stroke:#8F0100;stroke-width:1.5;stroke-miterlimit:10;}
</style>
<g>
	<path class="st0" d="M21.8,6c0.3,0,0.5,0.2,0.5,0.5v2c0,0.3-0.2,0.5-0.5,0.5h-8c-0.3,0-0.5-0.2-0.5-0.5v-2c0-0.3,0.2-0.5,0.5-0.5
		H21.8 M21.8,4.5h-8c-1.1,0-2,0.9-2,2v2c0,1.1,0.9,2,2,2h8c1.1,0,2-0.9,2-2v-2C23.8,5.4,22.9,4.5,21.8,4.5L21.8,4.5z"/>
</g>
<g>
	<path class="st0" d="M19.6,15.2c0.3,0,0.5,0.2,0.5,0.5v2c0,0.3-0.2,0.5-0.5,0.5h-8c-0.3,0-0.5-0.2-0.5-0.5v-2
		c0-0.3,0.2-0.5,0.5-0.5H19.6 M19.6,13.7h-8c-1.1,0-2,0.9-2,2v2c0,1.1,0.9,2,2,2h8c1.1,0,2-0.9,2-2v-2
		C21.6,14.6,20.7,13.7,19.6,13.7L19.6,13.7z"/>
</g>
<path class="st1" d="M0,11.6c8.9,0,4.8-4.2,12.4-4.2"/>
<path class="st1" d="M0,11.8c8.6,0,5,4.9,10.6,4.9"/>
</svg>
