<?xml version="1.0" encoding="UTF-8"?>
<svg width="1200pt" height="1200pt" version="1.1" viewBox="200 200 800 800" xmlns="http://www.w3.org/2000/svg">
    <path fill="white" d="m600 405.17c137.38 0 249.39 112.01 249.39 249.39 0 51.934-16.117 100.28-43.453 140.28l-47.23-37.316c19.168-29.574 30.23-64.938 30.23-102.96 0-104.7-84.227-188.93-188.93-188.93-104.7 0-188.93 84.23-188.93 188.93 0 38.031 11.059 73.395 30.23 102.96l-47.23 37.312c-27.344-40-43.457-88.34-43.457-140.28 0-137.37 112.01-249.39 249.38-249.39zm-133.67 176.18 160.35 106.98c14.758 14.758 14.758 38.617 0 53.371-14.758 14.758-38.617 14.758-53.371 0l-106.98-160.35z"/>
</svg>
